<svg xmlns="http://www.w3.org/2000/svg" width="108" height="108" viewBox="0 0 108 108">
  <!-- GROUND SHADOW / REFLECTION -->
  <path d="M16.3,88.8 Q54,99 91.7,88.8 Q94.6,81.6 91.7,74.2 Q54,64.2 16.3,74.2 Q13.4,81.6 16.3,88.8z" fill="#000000" fill-opacity="0.12"/>
  <path d="M22.1,85.9 Q54,93.2 85.9,85.9 Q88.8,80.1 85.9,75.7 Q54,68.6 22.1,75.7 Q19.2,80.1 22.1,85.9z" fill="#000000" fill-opacity="0.08"/>

  <!-- BLOCK [3,1]: Blue - Back Left -->
  <g>
    <path d="M34.6,36.6 L34.6,51.1 L43.3,46.8 L43.3,32.3z" fill="#0D47A1"/>
    <path d="M34.6,36.6 L34.6,51.1 L39,48.9 L39,34.5z" fill="#1565C0" fill-opacity="0.6"/>
    <path d="M17.2,32.3 L34.6,36.6 L43.3,32.3 L25.8,28z" fill="#42A5F5"/>
    <path d="M18.7,31.9 L25.8,28.3 L28.7,29.5 L21.7,33.1z" fill="#90CAF9" fill-opacity="0.7"/>
    <path d="M20.1,31.5 L24.4,29.3 L25.8,29.9 L21.7,32z" fill="#FFFFFF" fill-opacity="0.35"/>
    <path d="M17.2,32.3 L17.2,46.8 L34.6,51.1 L34.6,36.6z" fill="#1E88E5"/>
    <path d="M17.2,32.3 L17.2,36.6 L34.6,41 L34.6,36.6z" fill="#42A5F5" fill-opacity="0.4"/>
    <path d="M17.2,32.3 L34.6,36.6" stroke="#FFFFFF" stroke-opacity="0.15" stroke-width="0.4" fill="none"/>
    <path d="M17.2,32.3 L25.8,28" stroke="#FFFFFF" stroke-opacity="0.2" stroke-width="0.4" fill="none"/>
  </g>

  <!-- BLOCK [3,2]: Indigo - Back Center -->
  <g>
    <path d="M54,40.9 L54,55.5 L62.7,51.1 L62.7,36.6z" fill="#283593"/>
    <path d="M54,40.9 L54,55.5 L58.4,53.3 L58.4,38.8z" fill="#3949AB" fill-opacity="0.5"/>
    <path d="M36.6,36.6 L54,40.9 L62.7,36.6 L45.2,32.3z" fill="#5C6BC0"/>
    <path d="M38.1,36.3 L45.2,32.6 L48.1,33.7 L41,37.5z" fill="#9FA8DA" fill-opacity="0.6"/>
    <path d="M39.5,35.9 L43.8,33.7 L45.2,34.3 L41,36.5z" fill="#FFFFFF" fill-opacity="0.3"/>
    <path d="M36.6,36.6 L36.6,51.1 L54,55.5 L54,40.9z" fill="#3F51B5"/>
    <path d="M36.6,36.6 L36.6,40.9 L54,45.3 L54,40.9z" fill="#5C6BC0" fill-opacity="0.4"/>
    <path d="M36.6,36.6 L54,40.9" stroke="#FFFFFF" stroke-opacity="0.12" stroke-width="0.4" fill="none"/>
    <path d="M36.6,36.6 L45.2,32.3" stroke="#FFFFFF" stroke-opacity="0.18" stroke-width="0.4" fill="none"/>
  </g>

  <!-- BLOCK [3,3]: Deep Purple - Back Right -->
  <g>
    <path d="M74.3,45.3 L74.3,59.8 L83,55.5 L83,40.9z" fill="#4527A0"/>
    <path d="M74.3,45.3 L74.3,59.8 L78.7,57.6 L78.7,43.1z" fill="#5E35B1" fill-opacity="0.5"/>
    <path d="M56.9,40.9 L74.3,45.3 L83,40.9 L65.6,36.6z" fill="#7E57C2"/>
    <path d="M58.4,40.6 L65.6,36.9 L68.5,38 L61.3,41.7z" fill="#B39DDB" fill-opacity="0.6"/>
    <path d="M59.8,40.2 L64.1,38 L65.6,38.6 L61.3,40.8z" fill="#FFFFFF" fill-opacity="0.3"/>
    <path d="M56.9,40.9 L56.9,55.5 L74.3,59.8 L74.3,45.3z" fill="#673AB7"/>
    <path d="M56.9,40.9 L56.9,45.3 L74.3,49.6 L74.3,45.3z" fill="#7E57C2" fill-opacity="0.4"/>
    <path d="M56.9,40.9 L74.3,45.3" stroke="#FFFFFF" stroke-opacity="0.12" stroke-width="0.4" fill="none"/>
    <path d="M56.9,40.9 L65.6,36.6" stroke="#FFFFFF" stroke-opacity="0.18" stroke-width="0.4" fill="none"/>
  </g>

  <!-- BLOCK [2,1]: Teal - Middle Left -->
  <g>
    <path d="M34.6,48.2 L34.6,62.7 L43.3,58.4 L43.3,43.8z" fill="#00695C"/>
    <path d="M34.6,48.2 L34.6,62.7 L39,60.5 L39,46z" fill="#00897B" fill-opacity="0.5"/>
    <path d="M17.2,43.8 L34.6,48.2 L43.3,43.8 L25.8,39.5z" fill="#26A69A"/>
    <path d="M18.7,43.5 L25.8,39.9 L28.7,41 L21.7,44.6z" fill="#80CBC4" fill-opacity="0.65"/>
    <path d="M20.1,43.1 L24.4,41 L25.8,41.6 L21.7,43.6z" fill="#FFFFFF" fill-opacity="0.4"/>
    <path d="M17.2,43.8 L17.2,58.4 L34.6,62.7 L34.6,48.2z" fill="#009688"/>
    <path d="M17.2,43.8 L17.2,48.2 L34.6,52.5 L34.6,48.2z" fill="#26A69A" fill-opacity="0.45"/>
    <path d="M17.2,43.8 L34.6,48.2" stroke="#FFFFFF" stroke-opacity="0.15" stroke-width="0.5" fill="none"/>
    <path d="M17.2,43.8 L25.8,39.5" stroke="#FFFFFF" stroke-opacity="0.22" stroke-width="0.5" fill="none"/>
  </g>

  <!-- BLOCK [2,2]: CYAN - Middle Center -->
  <g>
    <path d="M54,52.5 L54,67.1 L62.7,62.7 L62.7,48.2z" fill="#00838F"/>
    <path d="M54,52.5 L54,67.1 L58.4,64.9 L58.4,50.3z" fill="#0097A7" fill-opacity="0.5"/>
    <path d="M36.6,48.2 L54,52.5 L62.7,48.2 L45.2,43.8z" fill="#26C6DA"/>
    <path d="M38.1,47.9 L45.2,44.2 L48.1,45.3 L41,49z" fill="#80DEEA" fill-opacity="0.65"/>
    <path d="M39.5,47.5 L43.8,45.3 L45.2,45.9 L41,48z" fill="#FFFFFF" fill-opacity="0.45"/>
    <path d="M36.6,48.2 L36.6,62.7 L54,67.1 L54,52.5z" fill="#00BCD4"/>
    <path d="M36.6,48.2 L36.6,52.5 L54,56.9 L54,52.5z" fill="#26C6DA" fill-opacity="0.45"/>
    <path d="M36.6,48.2 L36.6,62.7 L54,67.1 L54,52.5z" fill="#FFD600" fill-opacity="0.04"/>
    <path d="M36.6,48.2 L54,52.5" stroke="#FFFFFF" stroke-opacity="0.15" stroke-width="0.5" fill="none"/>
    <path d="M36.6,48.2 L45.2,43.8" stroke="#FFFFFF" stroke-opacity="0.22" stroke-width="0.5" fill="none"/>
  </g>

  <!-- BLOCK [2,3]: Pink - Middle Right -->
  <g>
    <path d="M74.3,56.9 L74.3,71.4 L83,67.1 L83,52.5z" fill="#AD1457"/>
    <path d="M74.3,56.9 L74.3,71.4 L78.7,69.2 L78.7,54.7z" fill="#C2185B" fill-opacity="0.5"/>
    <path d="M56.9,52.5 L74.3,56.9 L83,52.5 L65.6,48.2z" fill="#EC407A"/>
    <path d="M58.4,52.2 L65.6,48.5 L68.5,49.6 L61.3,53.3z" fill="#F48FB1" fill-opacity="0.65"/>
    <path d="M59.8,51.8 L64.1,49.6 L65.6,50.2 L61.3,52.4z" fill="#FFFFFF" fill-opacity="0.35"/>
    <path d="M56.9,52.5 L56.9,67.1 L74.3,71.4 L74.3,56.9z" fill="#E91E63"/>
    <path d="M56.9,52.5 L56.9,56.9 L74.3,61.2 L74.3,56.9z" fill="#EC407A" fill-opacity="0.4"/>
    <path d="M56.9,52.5 L74.3,56.9" stroke="#FFFFFF" stroke-opacity="0.12" stroke-width="0.4" fill="none"/>
    <path d="M56.9,52.5 L65.6,48.2" stroke="#FFFFFF" stroke-opacity="0.18" stroke-width="0.4" fill="none"/>
  </g>

  <!-- BLOCK [1,1]: Green - Front Left -->
  <g>
    <path d="M34.6,59.8 L34.6,74.3 L43.3,70 L43.3,55.5z" fill="#2E7D32"/>
    <path d="M34.6,59.8 L34.6,74.3 L39,72.1 L39,57.6z" fill="#388E3C" fill-opacity="0.55"/>
    <path d="M17.2,55.5 L34.6,59.8 L43.3,55.5 L25.8,51.1z" fill="#66BB6A"/>
    <path d="M18.7,55.1 L25.8,51.5 L28.7,52.5 L21.7,56.2z" fill="#A5D6A7" fill-opacity="0.7"/>
    <path d="M20.1,54.8 L24.4,52.5 L25.8,53.1 L21.7,55.3z" fill="#FFFFFF" fill-opacity="0.45"/>
    <path d="M17.2,55.5 L17.2,70 L34.6,74.3 L34.6,59.8z" fill="#4CAF50"/>
    <path d="M17.2,55.5 L17.2,59.8 L34.6,64.1 L34.6,59.8z" fill="#66BB6A" fill-opacity="0.5"/>
    <path d="M17.2,55.5 L34.6,59.8" stroke="#FFFFFF" stroke-opacity="0.18" stroke-width="0.5" fill="none"/>
    <path d="M17.2,55.5 L25.8,51.1" stroke="#FFFFFF" stroke-opacity="0.25" stroke-width="0.5" fill="none"/>
    <path d="M25.8,51.1 L43.3,55.5" stroke="#FFFFFF" stroke-opacity="0.12" stroke-width="0.4" fill="none"/>
  </g>

  <!-- BLOCK [1,2]: Orange - Front Center -->
  <g>
    <path d="M54,64.1 L54,78.7 L62.7,74.3 L62.7,59.8z" fill="#E65100"/>
    <path d="M54,64.1 L54,78.7 L58.4,76.5 L58.4,61.9z" fill="#EF6C00" fill-opacity="0.55"/>
    <path d="M36.6,59.8 L54,64.1 L62.7,59.8 L45.2,55.5z" fill="#FFA726"/>
    <path d="M38.1,59.5 L45.2,55.8 L48.1,56.9 L41,60.6z" fill="#FFB74D" fill-opacity="0.7"/>
    <path d="M39.5,59.1 L43.8,56.9 L45.2,57.5 L41,59.7z" fill="#FFFFFF" fill-opacity="0.5"/>
    <path d="M36.6,59.8 L36.6,74.3 L54,78.7 L54,64.1z" fill="#FF9800"/>
    <path d="M36.6,59.8 L36.6,64.1 L54,68.5 L54,64.1z" fill="#FFA726" fill-opacity="0.5"/>
    <path d="M36.6,59.8 L54,64.1" stroke="#FFFFFF" stroke-opacity="0.18" stroke-width="0.5" fill="none"/>
    <path d="M36.6,59.8 L45.2,55.5" stroke="#FFFFFF" stroke-opacity="0.25" stroke-width="0.5" fill="none"/>
  </g>

  <!-- BLOCK [1,3]: Red - Front Right -->
  <g>
    <path d="M74.3,68.5 L74.3,83 L83,78.7 L83,64.1z" fill="#B71C1C"/>
    <path d="M74.3,68.5 L74.3,83 L78.7,80.8 L78.7,66.3z" fill="#C62828" fill-opacity="0.5"/>
    <path d="M56.9,64.1 L74.3,68.5 L83,64.1 L65.6,59.8z" fill="#EF5350"/>
    <path d="M58.4,63.8 L65.6,60.1 L68.5,61.2 L61.3,64.9z" fill="#EF9A9A" fill-opacity="0.65"/>
    <path d="M59.8,63.4 L64.1,61.2 L65.6,61.8 L61.3,64z" fill="#FFFFFF" fill-opacity="0.4"/>
    <path d="M56.9,64.1 L56.9,78.7 L74.3,83 L74.3,68.5z" fill="#F44336"/>
    <path d="M56.9,64.1 L56.9,68.5 L74.3,72.8 L74.3,68.5z" fill="#EF5350" fill-opacity="0.45"/>
    <path d="M56.9,64.1 L74.3,68.5" stroke="#FFFFFF" stroke-opacity="0.15" stroke-width="0.5" fill="none"/>
    <path d="M56.9,64.1 L65.6,59.8" stroke="#FFFFFF" stroke-opacity="0.2" stroke-width="0.5" fill="none"/>
  </g>

  <!-- FUSION BLOCK SHADOW & GLOW -->
  <path d="M39.5,45.3 Q54,51.1 68.5,45.3 Q69.9,42.4 68.5,39.5 Q54,33.7 39.5,39.5 Q38.1,42.4 39.5,45.3z" fill="#000000" fill-opacity="0.15"/>
  <circle cx="54" cy="30.8" r="20.3" fill="#FFD600" fill-opacity="0.06"/>
  <circle cx="54" cy="30.8" r="14.5" fill="#FFAB00" fill-opacity="0.08"/>
  <circle cx="54" cy="30.8" r="10.2" fill="#FFD600" fill-opacity="0.12"/>

  <!-- FUSION BLOCK -->
  <g>
    <path d="M56.9,27.1 L56.9,41.6 L67,37.3 L67,22.7z" fill="#F9A825"/>
    <path d="M56.9,27.1 L56.9,41.6 L62,39.4 L62,24.9z" fill="#FBC02D" fill-opacity="0.6"/>
    <path d="M56.9,37.3 L56.9,41.6 L67,37.3 L67,33z" fill="#F57F17" fill-opacity="0.3"/>
    <path d="M39.5,22.7 L56.9,27.1 L67,22.7 L49.5,18.4z" fill="#FFEE58"/>
    <path d="M41,22.4 L49.5,18.6 L53.9,20.1 L45.2,24z" fill="#FFF9C4" fill-opacity="0.8"/>
    <path d="M42.5,21.9 L48.3,19.7 L50.5,20.4 L44.5,22.7z" fill="#FFFFFF" fill-opacity="0.7"/>
    <path d="M46.8,19.9 L52.5,18.5 L55.4,19.6 L49.5,21.1z" fill="#FFFFFF" fill-opacity="0.3"/>
    <path d="M39.5,22.7 L39.5,37.3 L56.9,41.6 L56.9,27.1z" fill="#FFD600"/>
    <path d="M39.5,22.7 L39.5,27.8 L56.9,32.1 L56.9,27.1z" fill="#FFEE58" fill-opacity="0.55"/>
    <path d="M39.5,33 L39.5,37.3 L56.9,41.6 L56.9,37.3z" fill="#F9A825" fill-opacity="0.3"/>
    <path d="M39.5,22.7 L56.9,27.1" stroke="#FFFFFF" stroke-opacity="0.35" stroke-width="0.7" fill="none"/>
    <path d="M39.5,22.7 L49.5,18.4" stroke="#FFFFFF" stroke-opacity="0.45" stroke-width="0.7" fill="none"/>
    <path d="M49.5,18.4 L67,22.7" stroke="#FFFFFF" stroke-opacity="0.25" stroke-width="0.6" fill="none"/>
    <path d="M67,22.7 L56.9,27.1" stroke="#FFFFFF" stroke-opacity="0.15" stroke-width="0.4" fill="none"/>
    <circle cx="52.8" cy="22.5" r="4.4" fill="#FFFFFF" fill-opacity="0.12"/>
    <line x1="53.5" y1="19.3" x2="53.5" y2="25.4" stroke="#FFFFFF" stroke-opacity="0.7" stroke-width="0.9"/>
    <line x1="49.2" y1="22.2" x2="57.8" y2="22.2" stroke="#FFFFFF" stroke-opacity="0.5" stroke-width="0.7"/>
    <line x1="50.6" y1="19.6" x2="56.4" y2="24.7" stroke="#FFFFFF" stroke-opacity="0.3" stroke-width="0.5"/>
    <line x1="56.4" y1="19.6" x2="50.6" y2="24.7" stroke="#FFFFFF" stroke-opacity="0.3" stroke-width="0.5"/>
    <path d="M53.5,20.7 L55,22.2 L53.5,23.7 L52,22.2z" fill="#FFFFFF" fill-opacity="0.85"/>
    <path d="M39.5,22.7 L39.5,37.3 L56.9,41.6 L56.9,27.1z" stroke="#FFFF00" stroke-opacity="0.2" stroke-width="0.9" fill="none"/>
    <path d="M56.9,27.1 L56.9,41.6 L67,37.3 L67,22.7z" stroke="#FFD600" stroke-opacity="0.15" stroke-width="0.7" fill="none"/>
  </g>

  <!-- FUSION ENERGY PARTICLES -->
  <circle cx="30.8" cy="19.2" r="2.9" fill="#00E5FF" fill-opacity="0.65"/>
  <circle cx="30.8" cy="19.2" r="1.5" fill="#FFFFFF" fill-opacity="0.4"/>
  <circle cx="80.1" cy="22.1" r="2.6" fill="#FF4081" fill-opacity="0.6"/>
  <circle cx="80.1" cy="22.1" r="1.2" fill="#FFFFFF" fill-opacity="0.35"/>
  <circle cx="13.4" cy="65.6" r="2.2" fill="#76FF03" fill-opacity="0.5"/>
  <circle cx="13.4" cy="65.6" r="1" fill="#FFFFFF" fill-opacity="0.3"/>
  <circle cx="88.8" cy="62.7" r="2.2" fill="#FFAB40" fill-opacity="0.55"/>
  <circle cx="88.8" cy="62.7" r="1" fill="#FFFFFF" fill-opacity="0.3"/>
  <circle cx="23.6" cy="14.9" r="1.7" fill="#00E5FF" fill-opacity="0.35"/>
  <circle cx="19.2" cy="12" r="1" fill="#00E5FF" fill-opacity="0.15"/>
  <circle cx="85.9" cy="17.8" r="1.5" fill="#FF4081" fill-opacity="0.3"/>
  <circle cx="90.3" cy="15.3" r="0.9" fill="#FF4081" fill-opacity="0.12"/>
  <circle cx="9" cy="71.4" r="1.2" fill="#76FF03" fill-opacity="0.25"/>
  <circle cx="93.2" cy="67.1" r="1.2" fill="#FFAB40" fill-opacity="0.25"/>
  <circle cx="54" cy="10.6" r="1.5" fill="#B388FF" fill-opacity="0.45"/>
  <circle cx="54" cy="7.7" r="0.7" fill="#B388FF" fill-opacity="0.2"/>
  <circle cx="94.6" cy="45.3" r="1.2" fill="#FF6E40" fill-opacity="0.3"/>
  <circle cx="10.6" cy="39.5" r="1.2" fill="#18FFFF" fill-opacity="0.3"/>
  <circle cx="68.5" cy="85.9" r="0.9" fill="#FFD740" fill-opacity="0.25"/>
  <circle cx="36.6" cy="85.9" r="0.9" fill="#69F0AE" fill-opacity="0.2"/>

  <!-- ENERGY BEAMS -->
  <line x1="45.2" y1="25.5" x2="27.8" y2="32.8" stroke="#00E5FF" stroke-opacity="0.12" stroke-width="1.2"/>
  <line x1="45.2" y1="25.5" x2="27.8" y2="32.8" stroke="#FFFFFF" stroke-opacity="0.06" stroke-width="0.4"/>
  <line x1="62.7" y1="25.5" x2="71.4" y2="37.1" stroke="#FF4081" stroke-opacity="0.1" stroke-width="1"/>
  <line x1="45.2" y1="32.8" x2="27.8" y2="50.2" stroke="#76FF03" stroke-opacity="0.08" stroke-width="0.9"/>
  <line x1="62.7" y1="32.8" x2="71.4" y2="56" stroke="#FFAB40" stroke-opacity="0.08" stroke-width="0.9"/>

  <!-- SPARKLE CROSSES -->
  <line x1="53.3" y1="4.7" x2="53.3" y2="13.4" stroke="#FFFFFF" stroke-opacity="0.25" stroke-width="0.7" stroke-linecap="round"/>
  <line x1="48.9" y1="9.1" x2="57.6" y2="9.1" stroke="#FFFFFF" stroke-opacity="0.25" stroke-width="0.7" stroke-linecap="round"/>
  <line x1="97.5" y1="39.5" x2="97.5" y2="43.9" stroke="#FFFFFF" stroke-opacity="0.15" stroke-width="0.5" stroke-linecap="round"/>
  <line x1="95.3" y1="41.7" x2="99.7" y2="41.7" stroke="#FFFFFF" stroke-opacity="0.15" stroke-width="0.5" stroke-linecap="round"/>
  <line x1="7.6" y1="28" x2="7.6" y2="31.6" stroke="#FFFFFF" stroke-opacity="0.1" stroke-width="0.4" stroke-linecap="round"/>
  <line x1="5.8" y1="29.8" x2="9.4" y2="29.8" stroke="#FFFFFF" stroke-opacity="0.1" stroke-width="0.4" stroke-linecap="round"/>
  <line x1="91.7" y1="80.1" x2="91.7" y2="83" stroke="#FFFFFF" stroke-opacity="0.08" stroke-width="0.35" stroke-linecap="round"/>
  <line x1="90.3" y1="81.6" x2="93.2" y2="81.6" stroke="#FFFFFF" stroke-opacity="0.08" stroke-width="0.35" stroke-linecap="round"/>
</svg>